<svg xmlns="http://www.w3.org/2000/svg" fill="none" viewBox="0 0 283 64"><path fill="black" d="m141.04 16 c 9.37 0 17.29 7.06 17.29 16.52 c 0 9.46 -7.92 16.52 -17.29 16.52 c -9.36 0 -17.28 -7.06 -17.28 -16.52 c 0 -9.46 7.92 -16.52 17.28 -16.52 z m 0 4.62 c -6.53 0 -11.78 5.39 -11.78 11.9 c 0 6.51 5.25 11.9 11.78 11.9 c 6.54 0 11.79 -5.39 11.79 -11.9 c 0 -6.51 -5.25 -11.9 -11.79 -11.9 z m 53.41 -11.9 c 9.37 0 17.29 7.06 17.29 16.52 c 0 9.46 -7.92 16.52 -17.29 16.52 c -9.37 0 -17.29 -7.06 -17.29 -16.52 c 0 -9.46 7.92 -16.52 17.29 -16.52 z m 0 4.62 c -6.54 0 -11.79 5.39 -11.79 11.9 c 0 6.51 5.25 11.9 11.79 11.9 c 6.53 0 11.78 -5.39 11.78 -11.9 c 0 -6.51 -5.25 -11.9 -11.78 -11.9 z m 31.74 -4.62 h 24.99 v 4.62 h -19.37 v 11.9 h 17.29 v 4.62 h -17.29 v 11.9 h 19.37 v 4.62 h -24.99 z m 51.64 0 c 9.37 0 17.29 7.06 17.29 16.52 c 0 9.46 -7.92 16.52 -17.29 16.52 c -9.36 0 -17.28 -7.06 -17.28 -16.52 c 0 -9.46 7.92 -16.52 17.28 -16.52 z m 0 4.62 c -6.53 0 -11.78 5.39 -11.78 11.9 c 0 6.51 5.25 11.9 11.78 11.9 c 6.54 0 11.79 -5.39 11.79 -11.9 c 0 -6.51 -5.25 -11.9 -11.79 -11.9 z m -188.84 -4.62 h 5.62 l 15.28 24.96 l 15.28 -24.96 h 5.62 v 33.04 h -5.62 v -23.76 l -14.17 22.67 h -1.22 l -14.17 -22.67 v 23.76 h -5.62 z m -31.74 0 h 24.99 v 4.62 h -19.37 v 11.9 h 17.29 v 4.62 h -17.29 v 12.9 h -5.62 z m -30.52 0 h 5.62 v 28.42 h 19.37 v 4.62 h -24.99 z M 31.74 8.72 h 5.62 v 33.04 h -5.62 z m -31.74 0 h 24.99 v 4.62 H 5.62 v 11.9 h 17.29 v 4.62 H 5.62 v 11.9 h 19.37 v 4.62 H 0 z"/></svg>
